<svg xmlns="http://www.w3.org/2000/svg" viewBox="0 0 100 100">
  <defs>
    <linearGradient id="grad" x1="0%" y1="0%" x2="100%" y2="100%">
      <stop offset="0%" style="stop-color:#3b82f6;stop-opacity:1" />
      <stop offset="100%" style="stop-color:#9333ea;stop-opacity:1" />
    </linearGradient>
  </defs>
  <rect width="100" height="100" rx="20" fill="url(#grad)"/>
  <g transform="translate(50, 50) scale(2.5)" stroke="white" stroke-width="2" stroke-linecap="round" stroke-linejoin="round" fill="none">
    <path d="m0 -9-1.912 5.813a2 2 0 0 1-1.275 1.275L-9 0l5.813 1.912a2 2 0 0 1 1.275 1.275L0 9l1.912-5.813a2 2 0 0 1 1.275-1.275L9 0l-5.813-1.912a2 2 0 0 1-1.275-1.275L0 -9Z"/>
    <path d="M-7 -9v4"/>
    <path d="M7 5v4"/>
    <path d="M-9 -7h4"/>
    <path d="M5 7h4"/>
  </g>
</svg>
